<?xml version="1.0" standalone="no"?>
<!DOCTYPE svg PUBLIC "-//W3C//DTD SVG 20010904//EN"
 "http://www.w3.org/TR/2001/REC-SVG-20010904/DTD/svg10.dtd">
<svg version="1.0" xmlns="http://www.w3.org/2000/svg"
 width="819.000000pt" height="819.000000pt" viewBox="0 0 819.000000 819.000000"
 preserveAspectRatio="xMidYMid meet">
<metadata>
Created by potrace 1.14, written by Peter Selinger 2001-2017
</metadata>
<g transform="translate(0.000000,819.000000) scale(0.100000,-0.100000)"
fill="#000000" stroke="none">
<path d="M7 8172 c-2 -4 -3 -1841 -3 -4082 l1 -4075 731 -3 732 -2 0 1012 c0
974 0 1012 18 1025 10 8 39 33 64 56 25 24 74 70 110 102 36 32 110 99 164
149 54 50 108 99 120 109 12 10 39 35 61 55 22 21 85 78 140 127 55 50 109 99
121 110 11 11 41 38 65 60 24 22 89 81 144 130 54 50 106 97 115 105 46 43
132 120 285 259 94 85 200 182 236 215 132 122 328 299 381 345 35 31 38 31
52 14 8 -10 92 -124 185 -253 159 -220 227 -314 393 -543 37 -50 75 -103 85
-117 10 -14 59 -81 109 -150 131 -181 391 -540 974 -1345 283 -390 518 -714
523 -720 9 -12 77 -107 109 -153 13 -18 28 -39 33 -45 6 -7 75 -102 154 -212
80 -110 167 -230 194 -267 l50 -68 899 0 899 0 -32 48 c-18 26 -35 49 -38 52
-3 3 -17 21 -31 40 -29 41 -250 348 -464 643 -83 115 -164 228 -181 251 -44
63 -338 469 -348 481 -12 16 -106 145 -348 480 -122 171 -264 366 -314 435
-49 69 -97 135 -105 146 -8 12 -42 59 -75 104 -33 46 -73 102 -90 125 -16 23
-158 219 -315 436 -157 216 -389 537 -517 713 -127 177 -248 344 -268 371 -20
28 -90 124 -155 215 -66 91 -123 170 -127 175 -5 6 -35 47 -67 93 l-58 83 33
30 c44 39 205 186 244 223 16 15 61 56 98 89 38 34 85 77 105 97 31 29 189
175 283 261 28 25 172 157 224 204 17 15 57 53 91 84 33 31 107 99 164 151
182 167 223 204 255 235 18 17 66 60 106 96 41 37 88 80 104 95 78 73 258 239
274 253 23 20 214 195 257 236 18 17 69 64 115 105 45 41 101 93 125 115 23
22 79 74 125 115 45 41 92 84 103 95 20 19 333 306 420 385 21 19 50 46 65 60
15 14 76 70 136 125 60 55 138 128 174 162 l65 61 -1080 0 -1080 0 -35 -32
c-44 -41 -147 -136 -278 -256 -57 -52 -109 -100 -115 -105 -6 -6 -96 -89 -201
-185 -104 -95 -212 -195 -240 -221 -27 -26 -60 -56 -71 -66 -24 -20 -192 -174
-234 -213 -15 -14 -74 -68 -131 -120 -183 -168 -212 -195 -239 -220 -14 -14
-68 -63 -120 -110 -51 -47 -103 -94 -115 -105 -12 -11 -43 -40 -71 -65 -27
-25 -83 -77 -124 -115 -76 -70 -251 -230 -344 -315 -27 -25 -59 -54 -71 -65
-45 -43 -214 -197 -236 -216 -13 -11 -48 -43 -79 -72 -46 -43 -183 -168 -276
-252 -12 -11 -61 -56 -109 -100 -48 -44 -96 -87 -105 -95 -18 -16 -189 -172
-246 -225 -79 -74 -213 -196 -258 -236 -28 -24 -77 -69 -110 -100 -34 -31 -73
-67 -87 -80 -15 -13 -69 -62 -120 -109 -52 -47 -103 -94 -115 -105 -11 -11
-63 -58 -115 -105 -52 -46 -103 -94 -114 -105 -11 -11 -60 -55 -108 -99 l-87
-78 -1 33 c0 19 0 957 -1 2085 l0 2052 -729 0 c-401 0 -730 -3 -732 -6z"/>
</g>
</svg>
